<svg width="48" height="40" viewBox="0 0 48 40" fill="none" xmlns="http://www.w3.org/2000/svg">
<path d="M43.3243 20H35.8919V14.2857C35.8919 11.1339 38.5582 8.57143 41.8378 8.57143H42.5811C43.8167 8.57143 44.8108 7.61607 44.8108 6.42857V2.14286C44.8108 0.955357 43.8167 0 42.5811 0H41.8378C33.625 0 26.9729 6.39286 26.9729 14.2857V35.7143C26.9729 38.0804 28.9704 40 31.4324 40H43.3243C45.7863 40 47.7838 38.0804 47.7838 35.7143V24.2857C47.7838 21.9196 45.7863 20 43.3243 20ZM16.5675 20H9.13511V14.2857C9.13511 11.1339 11.8015 8.57143 15.0811 8.57143H15.8243C17.0599 8.57143 18.054 7.61607 18.054 6.42857V2.14286C18.054 0.955357 17.0599 0 15.8243 0H15.0811C6.86821 0 0.216187 6.39286 0.216187 14.2857V35.7143C0.216187 38.0804 2.21365 40 4.67565 40H16.5675C19.0295 40 21.027 38.0804 21.027 35.7143V24.2857C21.027 21.9196 19.0295 20 16.5675 20Z" fill="white"/>
</svg>
