<svg width="100" height="100" viewBox="0 0 100 100" fill="none" xmlns="http://www.w3.org/2000/svg">
<path d="M77.6692 33.9256C76.7792 27.2831 73.5071 21.1722 68.4553 16.7183C63.3573 12.2237 56.8032 9.74854 49.9999 9.74854C43.1978 9.74854 36.6445 12.2229 31.547 16.7161C26.4957 21.1684 23.223 27.278 22.3316 33.919C22.224 34.7206 22.7867 35.4579 23.5884 35.5655C24.3886 35.6745 25.1273 35.1104 25.2349 34.3087C26.8902 21.977 37.5367 12.678 49.9999 12.678C62.4661 12.678 73.1129 21.9798 74.7657 34.3147C74.8643 35.0504 75.493 35.585 76.2157 35.585C76.2805 35.585 76.346 35.5807 76.412 35.5719C77.2137 35.4645 77.7766 34.7274 77.6692 33.9256Z" fill="#135290"/>
<path d="M76.4313 39.4954C75.6274 39.3962 74.8971 39.9663 74.7977 40.7691C73.2534 53.246 62.5927 62.6547 49.9999 62.6547C37.398 62.6547 26.7363 53.2384 25.2 40.7513C25.1011 39.9486 24.3717 39.3775 23.5674 39.4765C22.7644 39.5753 22.1937 40.3062 22.2926 41.1091C24.0093 55.0622 35.9209 65.5842 50.0001 65.5842C64.0688 65.5842 75.9794 55.0708 77.7049 41.129C77.8044 40.3261 77.234 39.5948 76.4313 39.4954Z" fill="#135290"/>
<path d="M58.4757 46.9039H55.1925V21.7791C55.1925 20.7383 54.3458 19.8916 53.305 19.8916H48.366C47.9228 19.8916 47.4917 20.0484 47.1527 20.3332L38.1793 27.8637C37.3963 28.5209 37.2759 29.6664 37.9054 30.4717L40.8484 34.2381C41.1605 34.6373 41.6285 34.8976 42.1322 34.9523C42.6365 35.007 43.1488 34.8529 43.5392 34.5297L45.5839 32.8367V46.9037H41.4388V46.9039C40.398 46.9039 39.5513 47.7507 39.5513 48.7913V53.2706C39.5513 54.3115 40.398 55.1581 41.4388 55.1581H58.4757C59.5165 55.1581 60.3632 54.3113 60.3632 53.2706V48.7913C60.3632 47.7505 59.5165 46.9039 58.4757 46.9039ZM57.4339 52.229H42.481V49.8335H46.6261C47.6669 49.8335 48.5136 48.9869 48.5136 47.946V30.6215C48.5134 29.8824 48.0982 29.2279 47.4294 28.9135C46.7605 28.5988 45.9917 28.6961 45.4222 29.1676L42.4966 31.5898L40.8332 29.4611L48.7453 22.8213H52.2632V47.946C52.2632 48.9869 53.1099 49.8335 54.1507 49.8335H57.4339V52.229Z" fill="#135290"/>
<path d="M89.7231 83.8084L76.5258 63.1653C78.0114 62.8575 79.3508 62.0184 80.2733 60.797C81.3367 59.3888 81.761 57.586 81.4369 55.8515C81.1627 54.3831 81.9051 52.8923 83.2422 52.2261C84.8217 51.4394 86.0045 50.0146 86.4875 48.3173C86.9703 46.62 86.7149 44.7859 85.7862 43.2853C85 42.0152 85.1537 40.357 86.1598 39.2529C87.3483 37.9486 87.9367 36.1927 87.7738 34.4357C87.611 32.6785 86.7102 31.0607 85.302 29.9968C84.11 29.0964 83.6543 27.4947 84.1938 26.1015C84.8309 24.4558 84.7451 22.6062 83.9586 21.0263C83.1721 19.4466 81.7475 18.2636 80.0502 17.7802C78.6135 17.3711 77.6098 16.0422 77.6096 14.5484C77.6092 12.7838 76.861 11.0898 75.5569 9.90096C74.2528 8.71209 72.4967 8.12362 70.7399 8.28592C69.252 8.42381 67.8366 7.54667 67.2965 6.15389C66.6586 4.50839 65.3491 3.19921 63.7036 2.56171C62.0581 1.92441 60.2083 2.00957 58.6286 2.79589C57.2913 3.46132 55.654 3.15546 54.6475 2.05175C53.4587 0.74785 51.7645 0 49.9999 0C48.2352 0 46.5413 0.74785 45.352 2.05156C44.3456 3.15507 42.7081 3.46132 41.371 2.7957C39.7911 2.00937 37.9415 1.92422 36.296 2.56152C34.6505 3.19902 33.3409 4.50819 32.7031 6.1537C32.1632 7.54647 30.7454 8.42323 29.2599 8.28573C27.5023 8.12323 25.747 8.7117 24.4429 9.90076C23.1388 11.0896 22.3906 12.7836 22.3902 14.5482C22.39 16.042 21.3863 17.3711 19.9496 17.78C18.2523 18.2632 16.8277 19.4464 16.0412 21.0261C15.2546 22.6058 15.1689 24.4556 15.806 26.1013C16.3453 27.4943 15.8896 29.0962 14.6978 29.9966C13.2898 31.0605 12.3888 32.6783 12.2259 34.4355C12.0632 36.1925 12.6515 37.9484 13.84 39.2527C14.8461 40.3568 14.9998 42.015 14.2136 43.2853C13.2849 44.7859 13.0295 46.62 13.5123 48.3173C13.9953 50.0146 15.1781 51.4394 16.7576 52.2261C18.0947 52.8923 18.8371 54.3831 18.5628 55.8515C18.2388 57.5862 18.663 59.3888 19.7265 60.797C20.649 62.0182 21.9884 62.8575 23.474 63.1653L10.2767 83.8084C9.79099 84.5684 9.77966 85.5196 10.247 86.2909C10.7144 87.0621 11.5646 87.4918 12.4613 87.4131L25.3417 86.2797L29.7193 98.4463C30.0247 99.2949 30.771 99.8846 31.6673 99.985C31.757 99.9949 31.8462 100 31.9349 100C32.7316 100 33.4706 99.5998 33.9077 98.9162L49.9999 73.7448L66.0919 98.9158C66.529 99.5996 67.2678 99.9996 68.0647 99.9996C68.1534 99.9996 68.2428 99.9947 68.3325 99.9846C69.2288 99.884 69.975 99.2945 70.2805 98.4457L74.6582 86.2791L87.5385 87.4125C88.4371 87.4912 89.2856 87.0616 89.7529 86.2905C90.2201 85.5194 90.2088 84.5682 89.7231 83.8084ZM13.381 84.3912L26.2478 64.2649C26.7056 64.7303 27.0322 65.3272 27.1577 65.9979C27.3943 67.262 28.0158 68.4149 28.9156 69.3077L19.7525 83.8305L13.381 84.3912ZM28.5031 86.4131L27.9466 84.8664C27.5859 83.8639 26.5927 83.228 25.5308 83.3221L23.4199 83.5078L31.42 70.828C32.5913 71.2028 33.8601 71.2329 35.0612 70.8913C36.0749 70.603 37.1452 70.8194 37.9646 71.4169L28.5031 86.4131ZM32.0759 96.343L29.7611 89.9092L39.9786 73.7149C40.8308 74.4809 41.8843 75.0112 43.0292 75.2252C43.8931 75.3866 44.7739 75.3624 45.6144 75.1663L32.0759 96.343ZM50.9126 70.5297C50.8188 70.509 50.7231 70.4979 50.627 70.4958C50.4184 70.4751 50.2095 70.461 49.9999 70.461C49.7905 70.461 49.5817 70.4751 49.3731 70.4958C49.2765 70.4977 49.1806 70.509 49.0864 70.5297C48.0638 70.6782 47.0706 71.0747 46.2099 71.7245C45.4464 72.3006 44.5077 72.521 43.5673 72.3456C42.6269 72.1698 41.8315 71.6251 41.3276 70.8116C41.221 70.6395 41.1048 70.4758 40.9837 70.3171C40.9651 70.2928 40.9464 70.2688 40.9261 70.2458C39.3677 68.2633 36.7239 67.3729 34.2597 68.0735C33.3396 68.3352 32.3847 68.202 31.5712 67.6983C30.7577 67.1946 30.2128 66.3993 30.0368 65.4589C29.6617 63.454 28.332 61.7979 26.5603 60.9464C26.4697 60.8934 26.3759 60.8513 26.2798 60.8196C25.7013 60.5757 25.0822 60.4124 24.4353 60.3524C23.4828 60.2639 22.6406 59.7948 22.064 59.0313C21.4874 58.2679 21.2666 57.3294 21.4423 56.3888C21.9554 53.6405 20.5662 50.8505 18.0636 49.6038C17.2074 49.1772 16.5916 48.4355 16.3296 47.5153C16.0679 46.595 16.2009 45.6401 16.7044 44.8267C18.1759 42.4495 17.8882 39.3458 16.005 37.2792C15.3605 36.5722 15.0545 35.6579 15.1425 34.7054C15.2308 33.7527 15.6998 32.9105 16.4632 32.3337C18.6939 30.6484 19.547 27.6505 18.5375 25.0433C18.1919 24.1511 18.2367 23.1882 18.6632 22.3318C19.0896 21.4753 19.8312 20.8593 20.7515 20.5974C23.4404 19.8316 25.3187 17.3443 25.3193 14.5486C25.3195 13.5918 25.7089 12.7101 26.416 12.0654C27.123 11.4209 28.037 11.114 28.9898 11.2025C31.7747 11.4605 34.4236 9.81912 35.4341 7.21229C35.78 6.3203 36.4618 5.63847 37.354 5.29296C38.246 4.94745 39.2093 4.99179 40.0655 5.41815C42.5687 6.66366 45.6323 6.091 47.5163 4.02538C48.161 3.31855 49.0429 2.92929 49.9997 2.92929C50.9565 2.92929 51.8384 3.31855 52.4831 4.02538C54.3669 6.091 57.4309 6.66366 59.9339 5.41815C60.7903 4.99198 61.7532 4.94745 62.6454 5.29296C63.5376 5.63847 64.2194 6.3203 64.5651 7.21229C65.5756 9.81893 68.2241 11.4601 71.0096 11.2025C71.9618 11.114 72.876 11.4209 73.5832 12.0654C74.2903 12.7101 74.6797 13.5918 74.6799 14.5486C74.6803 17.3443 76.5586 19.8316 79.2477 20.5974C80.1678 20.8593 80.9094 21.4753 81.3358 22.3318C81.7623 23.1882 81.8069 24.1511 81.4614 25.0433C80.4518 27.6505 81.3049 30.6484 83.5356 32.3337C84.299 32.9105 84.768 33.7527 84.8563 34.7054C84.9445 35.6581 84.6383 36.5722 83.9938 37.2792C82.1106 39.3458 81.8231 42.4493 83.2944 44.8265C83.7979 45.6401 83.9309 46.5948 83.669 47.5151C83.4072 48.4355 82.7914 49.1771 81.935 49.6036C79.4326 50.8503 78.0434 53.6405 78.5565 56.3886C78.7321 57.3292 78.5114 58.2675 77.9348 59.0311C77.3582 59.7946 76.5161 60.2638 75.5633 60.3522C74.9159 60.4124 74.2963 60.5759 73.7172 60.8202C73.6219 60.8516 73.5288 60.8936 73.4389 60.946C71.667 61.7973 70.337 63.4536 69.9618 65.4587C69.7858 66.3991 69.2409 67.1944 68.4274 67.6981C67.6139 68.2018 66.6588 68.3348 65.7389 68.0735C63.2741 67.3725 60.6299 68.2635 59.0717 70.2467C59.0522 70.269 59.0342 70.2922 59.0163 70.3155C58.8948 70.4747 58.7782 70.6387 58.6712 70.8114C58.1675 71.6249 57.3719 72.1696 56.4315 72.3454C55.4915 72.5208 54.5526 72.3006 53.7889 71.7243C52.9286 71.0745 51.9356 70.6782 50.9126 70.5297ZM67.9239 96.343L54.3839 75.1635C54.8534 75.2733 55.3348 75.3317 55.8194 75.3317C56.203 75.3317 56.5885 75.2965 56.9706 75.2252C58.1155 75.0112 59.1688 74.4811 60.021 73.7151L70.2387 89.9098L67.9239 96.343ZM74.469 83.3221C73.4061 83.2285 72.4139 83.8637 72.0532 84.8666L71.4965 86.4139L62.0348 71.4174C62.8544 70.8198 63.9247 70.6032 64.9387 70.8917C66.1395 71.2331 67.4083 71.203 68.5795 70.8284L76.5793 83.5078L74.469 83.3221ZM80.2467 83.8305L71.084 69.3081C71.984 68.4153 72.6055 67.2622 72.8422 65.9979C72.9678 65.3272 73.2942 64.7303 73.752 64.2651L86.6188 84.3912L80.2467 83.8305Z" fill="#135290"/>
</svg>
